<?xml version="1.0" standalone="no"?>
<!DOCTYPE svg PUBLIC "-//W3C//DTD SVG 20010904//EN"
 "http://www.w3.org/TR/2001/REC-SVG-20010904/DTD/svg10.dtd">
<svg version="1.0" xmlns="http://www.w3.org/2000/svg"
 width="1000.000000pt" height="1000.000000pt" viewBox="0 0 1000.000000 1000.000000"
 preserveAspectRatio="xMidYMid meet">
<metadata>
Created by potrace 1.11, written by Peter Selinger 2001-2013
</metadata>
<g transform="translate(0.000000,1000.000000) scale(0.100000,-0.100000)"
fill="#000000" stroke="none">
<path d="M872 9989 c-216 -28 -419 -129 -577 -287 -128 -128 -212 -274 -263
-461 l-27 -96 -3 -4110 c-2 -3627 0 -4120 13 -4197 73 -422 399 -749 821 -823
76 -13 574 -15 4164 -15 3590 0 4088 2 4164 15 422 74 748 401 821 823 13 77
15 570 13 4197 l-3 4110 -27 96 c-101 367 -360 626 -727 727 l-96 27 -4105 1
c-2258 1 -4133 -2 -4168 -7z m6941 -1359 c29 -11 72 -38 96 -62 85 -81 77 -40
211 -1118 133 -1064 134 -1082 87 -1163 -100 -171 -317 -208 -460 -77 -85 78
-92 102 -139 484 -23 182 -44 334 -47 338 -3 4 -494 -1011 -1090 -2255 -1431
-2983 -1297 -2712 -1370 -2779 -69 -64 -119 -91 -215 -115 -180 -44 -390 50
-482 217 -17 30 -300 682 -630 1447 -329 766 -602 1393 -605 1393 -3 0 -153
-287 -333 -638 -224 -435 -339 -649 -364 -674 -117 -122 -341 -72 -410 92 -9
22 -13 57 -10 100 4 63 16 88 490 1010 525 1022 522 1017 639 1087 214 128
497 52 621 -167 14 -25 247 -561 519 -1192 271 -631 494 -1146 495 -1145 3 4
1866 3891 1900 3965 l34 72 -28 -14 c-15 -8 -173 -98 -351 -200 -178 -102
-342 -191 -365 -197 -194 -53 -394 118 -373 319 7 70 49 154 96 193 44 38
1783 1042 1861 1075 70 30 150 31 223 4z"/>
</g>
</svg>
