<svg xmlns="http://www.w3.org/2000/svg" fill="none" viewBox="0 0 191 191">
  <path fill="url(#paint0_linear)" d="M95.502 14.953c-44.485 0-80.546 36.063-80.546 80.547 0 44.483 36.061 80.545 80.546 80.545 44.481 0 80.544-36.062 80.544-80.545 0-44.484-36.063-80.547-80.544-80.547z" opacity=".5" style="mix-blend-mode:hard-light"/>
  <path fill="url(#paint1_linear)" d="M95.502 0C42.842 0 0 42.841 0 95.5S42.842 191 95.502 191C148.16 191 191 148.159 191 95.5S148.16 0 95.502 0zm0 187.941c-50.973 0-92.441-41.469-92.441-92.44 0-50.973 41.468-92.442 92.44-92.442 50.972 0 92.439 41.47 92.439 92.442 0 50.971-41.467 92.44-92.438 92.44z" opacity=".6" style="mix-blend-mode:hard-light"/>
  <path fill="#2D4F4A" d="M113.556 156.209a10.483 10.483 0 01-7.62-7.62l-.161-.64-.161.64a10.48 10.48 0 01-7.621 7.62l-.638.16.638.161a10.479 10.479 0 017.621 7.621l.161.639.161-.639a10.48 10.48 0 017.62-7.621l.641-.161-.641-.16zM95.573 160.717a6.693 6.693 0 01-4.866-4.866l-.103-.409-.103.409a6.694 6.694 0 01-4.866 4.866l-.408.103.408.102a6.695 6.695 0 014.866 4.867l.103.408.103-.408a6.693 6.693 0 014.866-4.867l.409-.102-.41-.103z"/>
  <path fill="#FFBE1B" d="M88.358 37.406a9.936 9.936 0 01-7.22-7.219l-.15-.606-.152.606a9.928 9.928 0 01-7.22 7.22l-.604.152.603.153a9.924 9.924 0 017.22 7.218l.153.606.15-.606a9.932 9.932 0 017.22-7.218l.607-.153-.607-.153zM66.67 42.783a6.633 6.633 0 01-4.821-4.82l-.1-.405-.102.404a6.632 6.632 0 01-4.821 4.821l-.404.102.404.103a6.63 6.63 0 014.821 4.819l.101.405.1-.405a6.633 6.633 0 014.822-4.82l.406-.102-.406-.102z"/>
  <path fill="#2D4F4A" d="M159.573 94.585a9.16 9.16 0 01-6.654-6.654l-.14-.56-.139.56a9.159 9.159 0 01-6.656 6.654l-.557.14.557.14a9.157 9.157 0 016.656 6.653l.139.559.14-.559a9.158 9.158 0 016.654-6.654l.56-.14-.56-.139z"/>
  <path fill="#FFBE1B" d="M74.644 48.57c-16.778 0-30.38 13.6-30.38 30.38s13.602 30.381 30.38 30.381c4.58 0 8.92-1.02 12.815-2.835 2.555-8.212 8.504-14.923 16.202-18.51a30.373 30.373 0 001.366-9.036c0-16.78-13.603-30.38-30.383-30.38z"/>
  <path fill="#FFE37B" d="M74.644 56.149c-12.595 0-22.805 10.21-22.805 22.805 0 12.594 10.21 22.805 22.805 22.805 12.595 0 22.806-10.21 22.806-22.805 0-12.595-10.211-22.805-22.806-22.805z"/>
  <path fill="#FFBE1B" d="M116.473 85.157c-16.778 0-30.38 13.6-30.38 30.381 0 16.78 13.602 30.381 30.38 30.381 16.78 0 30.383-13.601 30.383-30.381s-13.603-30.381-30.383-30.381z"/>
  <path fill="#FFE37B" d="M116.473 92.731c-12.595 0-22.805 10.21-22.805 22.806 0 12.594 10.21 22.805 22.805 22.805 12.595 0 22.806-10.211 22.806-22.805 0-12.596-10.211-22.806-22.806-22.806z"/>
  <path fill="#fff" d="M123.087 115.046c-1.176-1.002-3.017-1.797-5.52-2.385h-.099v-6.141c1.677.24 3.235.871 4.672 1.894l2.123-3.005c-2.134-1.459-4.399-2.276-6.795-2.45v-1.667h-2.09v1.634c-2.113.109-3.828.762-5.145 1.96-1.317 1.198-1.976 2.738-1.976 4.622s.572 3.304 1.715 4.262c1.144.959 2.945 1.732 5.406 2.32v6.337c-1.938-.305-3.822-1.252-5.651-2.842l-2.384 2.842c2.373 2.069 5.052 3.255 8.035 3.56v2.385h2.091v-2.352c2.221-.109 4.007-.762 5.357-1.96 1.35-1.197 2.025-2.749 2.025-4.655 0-1.904-.588-3.358-1.764-4.359zm-7.709-2.974c-1.22-.392-2.047-.8-2.483-1.225-.436-.424-.653-1.001-.653-1.731 0-.729.278-1.339.833-1.83.555-.489 1.323-.778 2.303-.865v5.651zm4.573 9.539c-.61.501-1.437.806-2.483.914v-5.879c1.307.391 2.2.811 2.679 1.257.479.447.719 1.051.719 1.813 0 .763-.305 1.394-.915 1.895z"/>
  <path fill="#2D4F4A" d="M149.194 73.934a1.873 1.873 0 00-2.515.83l-3.518 6.981c-2.704-10.02-8.519-19.071-16.593-25.734-8.984-7.414-20.359-11.497-32.028-11.497a1.873 1.873 0 000 3.745c21.203 0 39.775 14.48 45.087 34.77l-7.482-3.648a1.872 1.872 0 00-1.642 3.366l11.462 5.588a1.872 1.872 0 002.493-.84l5.565-11.046a1.872 1.872 0 00-.829-2.515z"/>
  <path fill="#FFBE1B" d="M95.92 145.454c-21.202 0-39.773-14.479-45.086-34.77l7.482 3.648a1.873 1.873 0 001.642-3.366l-11.462-5.588a1.873 1.873 0 00-2.493.841l-5.565 11.045a1.872 1.872 0 103.344 1.685l3.518-6.981c2.704 10.02 8.52 19.071 16.593 25.734A50.429 50.429 0 0095.92 149.2a1.872 1.872 0 100-3.746z"/>
  <path fill="#FCFCFC" d="M70.442 91.218a59.16 59.16 0 01-.848-3.073l-1.181-4.334a113.29 113.29 0 00-.923-3.19 34.597 34.597 0 00-.48-1.774l-3.763-13.592h7.527l6.9 27.106h-6.9l-.332-1.143zm5.793-10.874l3.727-15.09h7.38l-3.764 13.593-1.366 4.964a238.286 238.286 0 00-1.217 4.334 59.36 59.36 0 01-.849 3.073l-.332 1.143h-.516l-3.063-12.017z"/>
  <defs>
    <linearGradient id="paint0_linear" x1="14.965" x2="176.046" y1="95.5" y2="95.5" gradientUnits="userSpaceOnUse">
      <stop stop-color="#2D4F4A"/>
      <stop offset="1" stop-color="#2D4F4A"/>
    </linearGradient>
    <linearGradient id="paint1_linear" x1=".01" x2="191" y1="95.501" y2="95.501" gradientUnits="userSpaceOnUse">
      <stop stop-color="#2D4F4A"/>
      <stop offset="1" stop-color="#2D4F4A"/>
    </linearGradient>
  </defs>
</svg>
