<svg xmlns="http://www.w3.org/2000/svg" fill="none" viewBox="0 0 190 190">
  <path fill="url(#paint0_linear)" d="M94.999 15C50.819 15 15 50.817 15 95c0 44.182 35.819 80 79.999 80C139.181 175 175 139.182 175 95c0-44.183-35.818-80-80.001-80z" opacity=".5" style="mix-blend-mode:hard-light"/>
  <path fill="url(#paint1_linear)" d="M95 0C42.615 0 0 42.617 0 95c0 52.382 42.616 95 95 95 52.383 0 95-42.618 95-95 0-52.383-42.617-95-95-95zm0 186.955c-50.705 0-91.957-41.251-91.957-91.955C3.043 44.295 44.295 3.043 95 3.043c50.706 0 91.958 41.252 91.958 91.957 0 50.704-41.252 91.955-91.958 91.955z" opacity=".6" style="mix-blend-mode:hard-light"/>
  <path fill="#2D4F4A" d="M159.466 63.866a8.717 8.717 0 01-6.333-6.333l-.134-.533-.133.533a8.718 8.718 0 01-6.333 6.333l-.533.135.533.133a8.715 8.715 0 016.333 6.333l.133.533.134-.533a8.713 8.713 0 016.333-6.333L160 64l-.534-.135z"/>
  <path fill="#FFBE1B" d="M39.353 97.338a10.583 10.583 0 01-7.692-7.692L31.5 89l-.161.646a10.585 10.585 0 01-7.692 7.692L23 97.5l.647.162a10.587 10.587 0 017.692 7.693l.16.645.162-.645a10.584 10.584 0 017.692-7.694L40 97.5l-.647-.162zM40.581 77.395a6.85 6.85 0 01-4.977-4.977L35.5 72l-.105.418a6.85 6.85 0 01-4.976 4.977L30 77.5l.419.105a6.85 6.85 0 014.976 4.978L35.5 83l.104-.417a6.848 6.848 0 014.977-4.978L41 77.5l-.419-.105z"/>
  <path fill="#2D4F4A" d="M124.508 139.377a8.09 8.09 0 01-5.884-5.883l-.123-.494-.125.494a8.09 8.09 0 01-5.883 5.883l-.493.124.493.123a8.089 8.089 0 015.883 5.884l.125.492.123-.492a8.09 8.09 0 015.884-5.884l.493-.123-.493-.124zM108.126 148.281a14.319 14.319 0 01-10.409-10.407L97.5 137l-.221.874a14.311 14.311 0 01-10.405 10.407L86 148.5l.873.22a14.303 14.303 0 0110.405 10.406l.221.874.218-.874a14.31 14.31 0 0110.409-10.406l.874-.22-.874-.219z"/>
  <path fill="#2D4F4A" d="M132.33 57H56.672C51.882 57 48 60.879 48 65.66V120h93V65.66c0-4.781-3.882-8.66-8.67-8.66z" opacity=".5"/>
  <path fill="#2D4F4A" d="M39 120v3.982c0 3.323 2.62 6.018 5.854 6.018h101.294c3.232 0 5.852-2.695 5.852-6.018V120H39z"/>
  <path fill="url(#paint2_linear)" d="M134 66H55v54h79V66z" opacity=".5" style="mix-blend-mode:hard-light"/>
  <path fill="#fff" d="M123.863 102.797l-5.31-5.793h-10.689A2.081 2.081 0 00106.087 96 2.096 2.096 0 00104 98.105c0 1.164.934 2.107 2.087 2.107a2.08 2.08 0 001.778-1.005h9.733l5.31 5.793H135v-2.203h-11.137zM117.819 74.936l-7.286-2.993h-4.658a2.118 2.118 0 00-1.782-.943c-1.156 0-2.093.884-2.093 1.975 0 1.088.937 1.971 2.093 1.971.753 0 1.412-.376 1.781-.939h4.203L117.363 77H135v-2.064h-17.181zM121.364 82l-2.072 3.983h-3.45a2.095 2.095 0 00-1.766-.943c-1.147 0-2.076.886-2.076 1.978 0 1.096.929 1.982 2.076 1.982.748 0 1.402-.379 1.767-.946h4.796l2.072-3.983H135V82h-13.636zM119.2 108l-5.952 3.848h-9.417a2.069 2.069 0 10.001 2.164h10.054l5.952-3.849H134V108h-14.8zM120.806 91.953a2.066 2.066 0 00-1.749-.953c-1.136 0-2.057.896-2.057 2 0 1.106.921 2 2.057 2 .741 0 1.388-.382 1.75-.954H134v-2.093h-13.194z"/>
  <path fill="#FFBE1B" d="M101.959 83.32c-.204-.908-1.119-1.481-2.041-1.28l-1.951.425c-.474.103-.857.39-1.09.769l-2.097.457c-.392.085-.713.36-.854.73l-7.453 18.246H64.185c-.654 0-1.185.523-1.185 1.167S63.53 105 64.185 105h23.11c.494 0 .937-.302 1.11-.758l7.515-18.41 1.467-.32a1.728 1.728 0 001.32.243l1.951-.425a1.684 1.684 0 001.301-2.01z"/>
  <path fill="#FFBE1B" d="M88.212 87H62.788c-1.242 0-2.106 1.243-1.676 2.415l4.239 10.41A1.787 1.787 0 0067.027 101h16.946c.749 0 1.418-.468 1.677-1.175l4.238-10.41c.43-1.172-.434-2.415-1.676-2.415zM82 106a4 4 0 100 8 4 4 0 000-8zm0 5.554a1.553 1.553 0 11-.001-3.107 1.553 1.553 0 01.001 3.107zM70 106a4 4 0 100 8 4 4 0 000-8zm0 5.554a1.553 1.553 0 11-.001-3.107 1.553 1.553 0 01.001 3.107z"/>
  <defs>
    <linearGradient id="paint0_linear" x1="15.008" x2="175" y1="95.001" y2="95.001" gradientUnits="userSpaceOnUse">
      <stop stop-color="#2D4F4A"/>
      <stop offset="1" stop-color="#2D4F4A"/>
    </linearGradient>
    <linearGradient id="paint1_linear" x1=".01" x2="190" y1="95.001" y2="95.001" gradientUnits="userSpaceOnUse">
      <stop stop-color="#2D4F4A"/>
      <stop offset="1" stop-color="#2D4F4A"/>
    </linearGradient>
    <linearGradient id="paint2_linear" x1="55.004" x2="134" y1="93" y2="93" gradientUnits="userSpaceOnUse">
      <stop stop-color="#2D4F4A"/>
      <stop offset="1" stop-color="#2D4F4A"/>
    </linearGradient>
  </defs>
</svg>
