<svg xmlns="http://www.w3.org/2000/svg" fill="none" viewBox="0 0 191 191">
  <path fill="url(#paint0_linear)" d="M95.503 14.953c-44.484 0-80.546 36.064-80.546 80.547 0 44.484 36.062 80.545 80.546 80.545 44.482 0 80.544-36.061 80.544-80.545 0-44.483-36.062-80.547-80.544-80.547z" opacity=".5" style="mix-blend-mode:hard-light"/>
  <path fill="url(#paint1_linear)" d="M95.503 0C42.843 0 0 42.842 0 95.501 0 148.16 42.843 191 95.503 191 148.16 191 191 148.16 191 95.501 191 42.841 148.16 0 95.503 0zm0 187.939c-50.973 0-92.442-41.467-92.442-92.438 0-50.972 41.47-92.44 92.442-92.44 50.97 0 92.437 41.468 92.437 92.44 0 50.971-41.467 92.438-92.437 92.438z" opacity=".6" style="mix-blend-mode:hard-light"/>
  <path fill="#2D4F4A" d="M67.367 93.624h-9.474c.077.614.121 1.239.121 1.873 0 .635-.044 1.259-.12 1.873h9.473c-.04-.62-.069-1.243-.069-1.872 0-.63.029-1.254.069-1.874zM133.107 93.624h-9.474c.04.62.069 1.244.069 1.874 0 .63-.028 1.252-.069 1.872h9.474a15.018 15.018 0 01-.122-1.873c0-.634.045-1.258.122-1.873zM95.5 57.91c-.635 0-1.259-.045-1.873-.122v9.579c.62-.04 1.243-.07 1.873-.07.63 0 1.253.029 1.873.07v-9.579c-.614.077-1.238.121-1.873.121zM95.5 123.697c-.63 0-1.253-.028-1.873-.069v9.579a15.026 15.026 0 011.873-.121c.635 0 1.259.044 1.873.121v-9.579c-.62.041-1.243.069-1.873.069z"/>
  <path fill="url(#paint2_linear)" d="M95.5 67.3C79.925 67.3 67.3 79.927 67.3 95.503c0 15.575 12.626 28.201 28.201 28.201 15.576 0 28.202-12.625 28.202-28.2 0-15.576-12.626-28.204-28.201-28.204z" opacity=".6" style="mix-blend-mode:hard-light"/>
  <path fill="#ACCFC9" d="M95.5 74.336c-11.692 0-21.17 9.477-21.17 21.17 0 11.69 9.478 21.168 21.17 21.168 11.691 0 21.169-9.478 21.169-21.169 0-11.692-9.478-21.17-21.17-21.17z"/>
  <path fill="#FFBE1B" d="M95.5 28.102c-8.231 0-14.903 6.673-14.903 14.904S87.269 57.91 95.5 57.91c8.232 0 14.904-6.673 14.904-14.904S103.731 28.102 95.5 28.102z"/>
  <path fill="#FFE37B" d="M95.5 31.82c-6.179 0-11.188 5.007-11.188 11.186 0 6.178 5.01 11.187 11.188 11.187 6.179 0 11.187-5.009 11.187-11.187 0-6.179-5.008-11.187-11.187-11.187z"/>
  <path fill="#FFBE1B" d="M95.5 133.09c-8.231 0-14.903 6.672-14.903 14.904 0 8.231 6.672 14.903 14.903 14.903 8.232 0 14.904-6.672 14.904-14.903 0-8.231-6.673-14.904-14.904-14.904z"/>
  <path fill="#FFE37B" d="M95.5 136.808c-6.179 0-11.188 5.008-11.188 11.187 0 6.178 5.01 11.186 11.188 11.186 6.179 0 11.187-5.008 11.187-11.186 0-6.179-5.008-11.187-11.187-11.187z"/>
  <path fill="#2D4F4A" d="M80.362 45.254a1.872 1.872 0 00-2.377-1.17c-.729.25-1.465.518-2.187.799a1.873 1.873 0 001.36 3.49 49.969 49.969 0 012.034-.742 1.874 1.874 0 001.17-2.377zM53.275 64.36a1.873 1.873 0 00-2.603.486 54.532 54.532 0 00-2.463 3.947 1.872 1.872 0 103.26 1.844 50.766 50.766 0 012.292-3.675 1.873 1.873 0 00-.486-2.602zm18.072-15.444a1.872 1.872 0 00-2.552-.708 54.619 54.619 0 00-3.947 2.463 1.873 1.873 0 002.116 3.09 50.884 50.884 0 013.675-2.293c.9-.51 1.217-1.652.708-2.552zm-12.564 6.577a54.71 54.71 0 00-3.289 3.289 1.873 1.873 0 002.76 2.532 50.92 50.92 0 013.063-3.063 1.872 1.872 0 10-2.534-2.758zM47.307 74.729a1.873 1.873 0 00-2.425 1.065 54.146 54.146 0 00-.797 2.187 1.872 1.872 0 103.544 1.208c.233-.684.483-1.369.742-2.036a1.872 1.872 0 00-1.064-2.424zM146.915 77.98c-.25-.733-.519-1.47-.798-2.186a1.872 1.872 0 10-3.49 1.36c.26.666.51 1.351.743 2.035a1.873 1.873 0 103.545-1.208zM132.219 55.493a1.873 1.873 0 10-2.533 2.758 51.02 51.02 0 013.063 3.064 1.87 1.87 0 002.646.113c.762-.7.813-1.884.113-2.646a55.183 55.183 0 00-3.289-3.289zm-6.064-4.823a54.811 54.811 0 00-3.947-2.462 1.873 1.873 0 00-1.845 3.26 50.893 50.893 0 013.675 2.292 1.87 1.87 0 002.603-.486 1.874 1.874 0 00-.486-2.604zm16.637 18.124a54.596 54.596 0 00-2.462-3.947 1.872 1.872 0 10-3.09 2.117 50.542 50.542 0 012.293 3.675 1.872 1.872 0 103.259-1.845zM115.201 44.883a54.097 54.097 0 00-2.187-.798 1.872 1.872 0 10-1.207 3.545c.678.231 1.363.48 2.035.743a1.873 1.873 0 101.359-3.49zM48.372 113.838c-.26-.667-.51-1.351-.743-2.035a1.873 1.873 0 00-3.544 1.208c.25.734.518 1.47.797 2.186a1.873 1.873 0 103.49-1.359zM51.466 120.366a1.873 1.873 0 00-3.26 1.844 54.612 54.612 0 002.463 3.948 1.872 1.872 0 103.09-2.117 50.893 50.893 0 01-2.293-3.675zm6.784 9.324a1.872 1.872 0 10-2.758 2.532 54.638 54.638 0 003.288 3.289 1.87 1.87 0 002.646-.112c.7-.762.649-1.946-.112-2.646a51.196 51.196 0 01-3.064-3.063zm12.385 9.847a51.067 51.067 0 01-3.674-2.292 1.872 1.872 0 10-2.117 3.089 54.755 54.755 0 003.947 2.463 1.873 1.873 0 001.845-3.26zM79.192 143.373a52.41 52.41 0 01-2.035-.743 1.873 1.873 0 00-1.36 3.49c.72.279 1.455.548 2.188.797a1.874 1.874 0 001.207-3.544zM116.267 143.695a1.872 1.872 0 00-2.424-1.065c-.669.26-1.354.51-2.036.743a1.873 1.873 0 001.208 3.545c.732-.25 1.468-.518 2.186-.798a1.873 1.873 0 001.066-2.425zM124.037 137.247a50.7 50.7 0 01-3.675 2.292 1.872 1.872 0 001.843 3.26 54.702 54.702 0 003.948-2.462 1.873 1.873 0 00-2.116-3.09zm18.048-17.585a1.874 1.874 0 00-2.552.707 50.757 50.757 0 01-2.293 3.675 1.873 1.873 0 003.09 2.116 54.708 54.708 0 002.462-3.946c.51-.9.193-2.042-.707-2.552zm-9.337 10.03a50.875 50.875 0 01-3.063 3.064 1.872 1.872 0 102.534 2.758 54.84 54.84 0 003.288-3.289 1.872 1.872 0 10-2.759-2.533zM145.748 110.634a1.873 1.873 0 00-2.377 1.169 50.148 50.148 0 01-.742 2.035 1.872 1.872 0 103.489 1.36c.279-.717.548-1.453.798-2.187a1.873 1.873 0 00-1.168-2.377z"/>
  <path fill="#FFBE1B" d="M43.11 80.593c-8.23 0-14.903 6.672-14.903 14.904 0 8.231 6.672 14.903 14.904 14.903 8.231 0 14.903-6.672 14.903-14.903 0-8.232-6.672-14.904-14.903-14.904z"/>
  <path fill="#FFE37B" d="M43.111 84.316c-6.178 0-11.187 5.009-11.187 11.187 0 6.179 5.008 11.187 11.187 11.187 6.179 0 11.187-5.008 11.187-11.187 0-6.178-5.008-11.187-11.187-11.187z"/>
  <path fill="#FFBE1B" d="M147.889 80.593c-8.231 0-14.903 6.672-14.903 14.904 0 8.231 6.672 14.903 14.903 14.903 8.232 0 14.904-6.672 14.904-14.903 0-8.232-6.673-14.904-14.904-14.904z"/>
  <path fill="#FFE37B" d="M147.889 84.316c-6.179 0-11.188 5.008-11.188 11.187 0 6.178 5.009 11.187 11.188 11.187 6.178 0 11.186-5.009 11.186-11.187 0-6.179-5.008-11.187-11.186-11.187z"/>
  <path fill="#2D4F4A" d="M142.613 45.908a10.068 10.068 0 01-7.318-7.32l-.155-.615-.153.616a10.07 10.07 0 01-7.321 7.32l-.613.153.613.154a10.068 10.068 0 017.321 7.32l.153.615.155-.615a10.066 10.066 0 017.318-7.32l.616-.154-.616-.154zM152.815 57.448a6.397 6.397 0 01-4.647-4.644l-.097-.389-.097.39a6.39 6.39 0 01-4.646 4.643l-.388.097.388.1a6.386 6.386 0 014.646 4.644l.097.39.097-.39a6.393 6.393 0 014.647-4.644l.388-.1-.388-.097z"/>
  <path fill="#FFBE1B" d="M73.593 153.753a9.21 9.21 0 01-6.7-6.701l-.144-.562-.14.562a9.21 9.21 0 01-6.702 6.701l-.562.143.562.141a9.206 9.206 0 016.701 6.701l.141.563.145-.563a9.209 9.209 0 016.699-6.701l.565-.141-.565-.143z"/>
  <path fill="#2D4F4A" d="M73.74 73.82a6.817 6.817 0 01-4.954-4.955l-.103-.415-.105.415a6.813 6.813 0 01-4.955 4.955l-.414.104.414.106a6.81 6.81 0 014.955 4.953l.105.416.103-.416a6.815 6.815 0 014.955-4.953l.416-.106-.416-.104zM83.115 65.497a4.38 4.38 0 01-3.183-3.184l-.066-.266-.069.267a4.377 4.377 0 01-3.183 3.183l-.267.067.267.069a4.377 4.377 0 013.183 3.182l.07.268.065-.268a4.38 4.38 0 013.183-3.182l.268-.069-.268-.067z"/>
  <path fill="#FCFCFC" d="M91.375 104.199a39.36 39.36 0 01-.634-2.154l-.882-3.038a75.807 75.807 0 00-.689-2.237 23.037 23.037 0 00-.358-1.242L86 86h5.623l5.155 19h-5.155l-.248-.801zm4.328-7.622L98.487 86H104l-2.812 9.528-1.02 3.48c-.33 1.067-.634 2.08-.91 3.037a39.36 39.36 0 01-.633 2.154l-.248.801h-.386l-2.288-8.423zM146.389 99.62a20.19 20.19 0 01-.282-1.02l-.392-1.439c-.131-.47-.233-.824-.306-1.06a12.092 12.092 0 00-.159-.588L144 91h2.499l2.291 9h-2.291l-.11-.38zm1.923-3.61L149.55 91H152l-1.25 4.513-.453 1.648c-.147.506-.282.986-.404 1.44a20.19 20.19 0 01-.282 1.02l-.11.379h-.172l-1.017-3.99zM93.389 46.62c-.106-.348-.2-.688-.282-1.02l-.392-1.439c-.13-.47-.233-.824-.306-1.06a11.468 11.468 0 00-.16-.588L91 38h2.5l2.29 9H93.5l-.111-.38zm1.923-3.61L96.55 38H99l-1.25 4.513-.453 1.648c-.147.506-.282.986-.404 1.44-.082.33-.176.67-.282 1.02l-.11.379h-.172l-1.017-3.99zM41.389 99.62c-.106-.348-.2-.688-.282-1.02l-.392-1.439c-.13-.47-.233-.824-.306-1.06a11.468 11.468 0 00-.16-.588L39 91h2.5l2.29 9H41.5l-.111-.38zm1.923-3.61L44.55 91H47l-1.25 4.513-.453 1.648c-.147.506-.282.986-.404 1.44-.082.33-.176.67-.282 1.02l-.11.379h-.172l-1.017-3.99zM93.389 152.621c-.106-.349-.2-.689-.282-1.021l-.392-1.439c-.13-.471-.233-.824-.306-1.059a11.45 11.45 0 00-.16-.589L91 144h2.5l2.29 9H93.5l-.111-.379zm1.923-3.611L96.55 144H99l-1.25 4.513-.453 1.648c-.147.506-.282.986-.404 1.439-.082.332-.176.672-.282 1.021l-.11.379h-.172l-1.017-3.99z"/>
  <defs>
    <linearGradient id="paint0_linear" x1="14.966" x2="176.047" y1="95.5" y2="95.5" gradientUnits="userSpaceOnUse">
      <stop stop-color="#2D4F4A"/>
      <stop offset="1" stop-color="#2D4F4A"/>
    </linearGradient>
    <linearGradient id="paint1_linear" x1=".01" x2="191" y1="95.501" y2="95.501" gradientUnits="userSpaceOnUse">
      <stop stop-color="#2D4F4A"/>
      <stop offset="1" stop-color="#2D4F4A"/>
    </linearGradient>
    <linearGradient id="paint2_linear" x1="67.302" x2="123.702" y1="95.503" y2="95.503" gradientUnits="userSpaceOnUse">
      <stop stop-color="#2D4F4A"/>
      <stop offset="1" stop-color="#2D4F4A"/>
    </linearGradient>
  </defs>
</svg>
