<svg xmlns="http://www.w3.org/2000/svg" fill="none" viewBox="0 0 191 191">
  <path fill="url(#paint0_linear)" d="M95.501 14.953c-44.484 0-80.545 36.063-80.545 80.548 0 44.482 36.06 80.544 80.545 80.544 44.482 0 80.545-36.062 80.545-80.544 0-44.485-36.063-80.548-80.545-80.548z" opacity=".5" style="mix-blend-mode:hard-light"/>
  <path fill="url(#paint1_linear)" d="M95.501 0C42.841 0 0 42.84 0 95.5 0 148.16 42.842 191 95.501 191 148.16 191 191 148.159 191 95.5 191 42.84 148.16 0 95.501 0zm0 187.94c-50.972 0-92.44-41.468-92.44-92.44C3.06 44.529 44.529 3.06 95.5 3.06c50.972 0 92.439 41.47 92.439 92.442 0 50.971-41.467 92.439-92.439 92.439z" opacity=".6" style="mix-blend-mode:hard-light"/>
  <path fill="url(#paint2_linear)" d="M95.497 39.324c-31.022 0-56.174 25.149-56.174 56.177 0 31.025 25.152 56.174 56.174 56.174 31.028 0 56.179-25.149 56.179-56.174 0-31.028-25.151-56.177-56.179-56.177z" opacity=".6" style="mix-blend-mode:hard-light"/>
  <path fill="#ACCFC9" d="M95.499 53.336c-23.288 0-42.167 18.878-42.167 42.168 0 23.287 18.879 42.167 42.167 42.167 23.29 0 42.169-18.88 42.169-42.167 0-23.29-18.879-42.168-42.17-42.168z" opacity=".5" style="mix-blend-mode:hard-light"/>
  <path fill="#2D4F4A" d="M145.071 43.175a11.43 11.43 0 01-8.306-8.305l-.174-.697-.175.697a11.42 11.42 0 01-8.307 8.305l-.694.176.694.176a11.417 11.417 0 018.307 8.304l.175.697.174-.697a11.426 11.426 0 018.306-8.304l.698-.176-.698-.176z"/>
  <path fill="#FFBE1B" d="M52.634 137.495a11.43 11.43 0 01-8.306-8.306l-.174-.697-.175.697a11.423 11.423 0 01-8.307 8.306l-.694.175.694.176a11.42 11.42 0 018.307 8.304l.175.697.174-.697a11.427 11.427 0 018.306-8.304l.698-.176-.698-.175z"/>
  <path fill="#2D4F4A" d="M127.757 36.84a7.953 7.953 0 01-5.781-5.78l-.121-.486-.121.485a7.95 7.95 0 01-5.781 5.78l-.483.123.483.122a7.946 7.946 0 015.781 5.779l.121.485.121-.485a7.952 7.952 0 015.781-5.779l.486-.123-.486-.122zM79.467 115.929c2.516 1.775 7.173-.451 10.686-4.989l-9.547-6.737c-3.09 4.828-3.652 9.953-1.14 11.726zm36.332-50.544a.953.953 0 00-.885-.624c-.576.018-13.14-.052-20.392 6.513-3.41 3.082-11.159 15.85-11.159 15.85l-5.933 11.03s-.335.66-.471.932a2.43 2.43 0 00.778 3.091l1.297.915 12.672 8.943 1.3.915c.43.304.924.454 1.414.454.643 0 1.279-.257 1.759-.756.211-.218.72-.754.72-.754l8.404-9.288s9.432-11.58 11.196-15.826c3.753-9.036-.517-20.895-.7-21.395z"/>
  <path fill="url(#paint3_linear)" d="M105.302 102.604s-8.484 9.373-8.403 9.288c3.886 3.556 4.906 7.902 5.14 10.304.053.563.788.725 1.084.243 3.95-6.437 5.458-14.456 2.179-19.835z" opacity=".6" style="mix-blend-mode:hard-light"/>
  <path fill="url(#paint4_linear)" d="M83.472 86.932l-.11.191c-6.166-1.287-13.216 2.821-17.957 8.7-.356.44.043 1.077.591.94 2.342-.586 6.778-1.08 11.433 1.39l-.225.443 6.269-11.664z" opacity=".6" style="mix-blend-mode:hard-light"/>
  <path fill="#FCFCFC" d="M101.997 76.918a7.128 7.128 0 00-7.128 7.129 7.128 7.128 0 1014.256 0 7.128 7.128 0 00-7.128-7.129z"/>
  <path fill="#FFBE1B" d="M101.997 75.938c-4.47 0-8.108 3.637-8.108 8.108s3.637 8.108 8.108 8.108 8.109-3.637 8.109-8.108c0-4.47-3.638-8.109-8.109-8.109zm0 14.256a6.155 6.155 0 01-6.148-6.148 6.155 6.155 0 016.148-6.148 6.155 6.155 0 016.149 6.148 6.156 6.156 0 01-6.149 6.148zM79.034 103.094s-8.896 12.642-2.85 17.488c5.655 4.53 15.522-8.544 15.522-8.544l-12.672-8.944z"/>
  <path fill="#FFE37B" d="M80.606 104.204c-3.09 4.828-3.652 9.952-1.139 11.726 2.516 1.776 7.173-.451 10.686-4.989l-9.547-6.737z"/>
  <defs>
    <linearGradient id="paint0_linear" x1="14.964" x2="176.046" y1="95.5" y2="95.5" gradientUnits="userSpaceOnUse">
      <stop stop-color="#2D4F4A"/>
      <stop offset="1" stop-color="#2D4F4A"/>
    </linearGradient>
    <linearGradient id="paint1_linear" x1=".01" x2="191" y1="95.501" y2="95.501" gradientUnits="userSpaceOnUse">
      <stop stop-color="#2D4F4A"/>
      <stop offset="1" stop-color="#2D4F4A"/>
    </linearGradient>
    <linearGradient id="paint2_linear" x1="39.329" x2="151.676" y1="95.5" y2="95.5" gradientUnits="userSpaceOnUse">
      <stop stop-color="#2D4F4A"/>
      <stop offset="1" stop-color="#2D4F4A"/>
    </linearGradient>
    <linearGradient id="paint3_linear" x1="96.899" x2="107.095" y1="112.664" y2="112.664" gradientUnits="userSpaceOnUse">
      <stop stop-color="#2D4F4A"/>
      <stop offset="1" stop-color="#2D4F4A"/>
    </linearGradient>
    <linearGradient id="paint4_linear" x1="65.271" x2="83.472" y1="92.741" y2="92.741" gradientUnits="userSpaceOnUse">
      <stop stop-color="#2D4F4A"/>
      <stop offset="1" stop-color="#2D4F4A"/>
    </linearGradient>
  </defs>
</svg>
