<svg xmlns="http://www.w3.org/2000/svg" fill="none" viewBox="0 0 190 190">
  <path fill="url(#paint0_linear)" d="M95.001 15C50.817 15 15 50.819 15 95.001S50.817 175 95.001 175C139.182 175 175 139.183 175 95.001 175 50.818 139.182 15 95.001 15z" opacity=".5" style="mix-blend-mode:hard-light"/>
  <path fill="url(#paint1_linear)" d="M95.003 0C42.619 0 0 42.616 0 95c0 52.382 42.619 95 95.003 95C147.384 190 190 147.382 190 95c0-52.384-42.616-95-94.997-95zm0 186.955c-50.706 0-91.958-41.253-91.958-91.955 0-50.705 41.252-91.957 91.958-91.957 50.703 0 91.953 41.252 91.953 91.957 0 50.702-41.25 91.955-91.953 91.955z" opacity=".6" style="mix-blend-mode:hard-light"/>
  <path fill="#2D4F4A" d="M121.115 102c-5.026 0-9.115 3.99-9.115 8.893V120h11.976a73.207 73.207 0 001.71-2.642c1.646-2.679 3.074-5.524 4.314-8.448-.927-3.951-4.557-6.91-8.885-6.91z" opacity=".5"/>
  <path fill="#2D4F4A" d="M134.639 65.975L97.394 48.537a5.6 5.6 0 00-4.787-.001L55.361 65.975c-2.162 1.011-3.507 3.376-3.348 5.883.672 10.532 3.127 30.421 12.024 45.273 11.068 18.477 24.476 23.444 29.727 24.721a5.246 5.246 0 002.475 0c1.428-.348 3.463-.972 5.887-2.063v-16.724a3.255 3.255 0 013.254-3.257h1.835v-9.224c0-7.863 6.387-14.26 14.238-14.26 4.552 0 8.608 2.153 11.216 5.492 3.575-11.295 4.861-22.792 5.318-29.958.159-2.507-1.186-4.87-3.348-5.883z" opacity=".5"/>
  <path fill="#2D4F4A" d="M124 120h6v-9.033c0-.676-.078-1.334-.222-1.967-1.19 2.9-2.559 5.722-4.138 8.379A73.272 73.272 0 01124 120z"/>
  <path fill="#2D4F4A" d="M137.539 61.527l-37.368-17.49a11.034 11.034 0 00-9.34 0l-37.37 17.49c-4.15 1.94-6.736 6.402-6.438 11.1.706 11.05 3.309 31.956 12.818 47.827C71.985 140.721 87.073 146.258 93 147.702c.819.195 1.661.298 2.5.298.842 0 1.683-.102 2.504-.301a37.767 37.767 0 004.906-1.577 3.26 3.26 0 01-.259-1.278v-4.425c-2.433 1.095-4.474 1.721-5.907 2.069a5.268 5.268 0 01-2.484 0c-5.269-1.28-18.722-6.263-29.827-24.795-8.926-14.896-11.39-34.844-12.064-45.407-.16-2.515 1.19-4.886 3.36-5.901l37.371-17.491a5.611 5.611 0 012.4-.538c.833 0 1.64.18 2.403.539l37.37 17.49c2.169 1.015 3.519 3.387 3.36 5.9-.46 7.188-1.75 18.72-5.336 30.047a14.243 14.243 0 012.979 7.603c5.398-13.691 7.143-28.576 7.702-37.309.297-4.696-2.289-9.156-6.438-11.099zM86.207 33.297a13.084 13.084 0 01-9.51-9.498L76.502 23l-.2.799a13.072 13.072 0 01-9.508 9.498l-.793.202.793.203a13.07 13.07 0 019.509 9.5L76.5 44l.197-.799a13.08 13.08 0 019.509-9.499L87 33.5l-.793-.202zM53.471 54.864a8.722 8.722 0 01-6.339-6.332L47.001 48l-.133.532a8.716 8.716 0 01-6.339 6.333l-.529.134.529.136a8.713 8.713 0 016.34 6.333L47 62l.131-.532a8.72 8.72 0 016.34-6.333l.528-.136-.529-.135z"/>
  <path fill="#FFBE1B" d="M155.503 111.374a8.086 8.086 0 01-5.878-5.882l-.126-.492-.125.492a8.082 8.082 0 01-5.882 5.882l-.492.124.492.125a8.08 8.08 0 015.882 5.882l.125.495.126-.495a8.085 8.085 0 015.878-5.882l.497-.125-.497-.124zM86.277 154.318a11.829 11.829 0 01-8.598-8.598L77.5 145l-.181.72a11.82 11.82 0 01-8.599 8.598l-.72.184.72.18a11.815 11.815 0 018.599 8.595l.181.723.18-.723a11.823 11.823 0 018.597-8.595l.723-.18-.723-.184zM101.544 156.886a7.477 7.477 0 01-5.431-5.43L96 151l-.116.456a7.468 7.468 0 01-5.43 5.43L90 157l.455.114a7.464 7.464 0 015.43 5.427L96 163l.113-.459a7.473 7.473 0 015.431-5.427L102 157l-.456-.114zM121 96c-7.72 0-14 6.266-14 13.966V119h5.156v-9.034c0-4.864 3.967-8.821 8.844-8.821 4.877 0 8.844 3.957 8.844 8.821V119H135v-9.034c0-7.7-6.281-13.966-14-13.966z"/>
  <path fill="url(#paint2_linear)" d="M137.717 120h-32.434a3.291 3.291 0 00-3.283 3.299V144.7c0 1.823 1.47 3.3 3.283 3.3h32.434a3.291 3.291 0 003.283-3.3v-21.401a3.291 3.291 0 00-3.283-3.299z" opacity=".6" style="mix-blend-mode:hard-light"/>
  <path fill="#fff" d="M115.062 71.284a5.412 5.412 0 00-7.66.667l-17.17 20.558-7.014-6.832a5.413 5.413 0 00-7.69.128 5.503 5.503 0 00.128 7.742l11.206 10.913a5.417 5.417 0 004.061 1.532 5.42 5.42 0 003.88-1.943l20.92-25.051c1.933-2.314 1.638-5.768-.661-7.714z"/>
  <defs>
    <linearGradient id="paint0_linear" x1="15.008" x2="175" y1="95.001" y2="95.001" gradientUnits="userSpaceOnUse">
      <stop stop-color="#2D4F4A"/>
      <stop offset="1" stop-color="#2D4F4A"/>
    </linearGradient>
    <linearGradient id="paint1_linear" x1=".01" x2="190" y1="95.001" y2="95.001" gradientUnits="userSpaceOnUse">
      <stop stop-color="#2D4F4A"/>
      <stop offset="1" stop-color="#2D4F4A"/>
    </linearGradient>
    <linearGradient id="paint2_linear" x1="102.002" x2="141" y1="134" y2="134" gradientUnits="userSpaceOnUse">
      <stop stop-color="#2D4F4A"/>
      <stop offset="1" stop-color="#2D4F4A"/>
    </linearGradient>
  </defs>
</svg>
