<svg xmlns="http://www.w3.org/2000/svg" fill="none" viewBox="0 0 190 190">
  <path fill="url(#paint0_linear)" d="M95 15c-44.183 0-80 35.818-80 80.001C15 139.182 50.817 175 95 175c44.181 0 80-35.817 80-79.999C175 50.818 139.181 15 95 15z" opacity=".5" style="mix-blend-mode:hard-light"/>
  <path fill="url(#paint1_linear)" d="M95.001 0C42.617 0 0 42.617 0 95c0 52.384 42.617 95 95.001 95C147.385 190 190 147.384 190 95c0-52.383-42.616-95-94.999-95zm0 186.957c-50.705 0-91.956-41.252-91.956-91.956C3.045 44.295 44.296 3.043 95 3.043c50.705 0 91.955 41.252 91.955 91.958 0 50.704-41.25 91.956-91.954 91.956z" opacity=".6" style="mix-blend-mode:hard-light"/>
  <path fill="#FFBE1B" d="M67.125 139.28a14.314 14.314 0 01-10.405-10.407L56.5 128l-.22.873a14.314 14.314 0 01-10.408 10.407l-.872.22.872.219a14.312 14.312 0 0110.408 10.408l.22.873.22-.873a14.31 14.31 0 0110.405-10.408L68 139.5l-.875-.22z"/>
  <path fill="#2D4F4A" d="M84.011 53.752a16.19 16.19 0 01-11.766-11.764L71.999 41l-.248.988a16.178 16.178 0 01-11.767 11.764l-.984.249.984.25A16.173 16.173 0 0171.75 66.011L72 67l.246-.988A16.185 16.185 0 0184.011 54.25L85 54l-.989-.248zM58.353 72.338a10.585 10.585 0 01-7.693-7.692L50.5 64l-.162.646a10.582 10.582 0 01-7.694 7.692l-.644.163.644.163a10.578 10.578 0 017.694 7.69l.161.646.16-.646a10.583 10.583 0 017.694-7.69l.647-.163-.647-.163z"/>
  <path fill="#FFBE1B" d="M101.605 142.913c19.599-3.346 32.774-21.947 29.427-41.546-3.346-19.598-21.947-32.773-41.546-29.426-19.598 3.346-32.773 21.947-29.427 41.545 3.347 19.599 21.948 32.774 41.546 29.427z"/>
  <path fill="#FFE37B" d="M115.107 130.352c12.461-10.92 13.71-29.874 2.79-42.335-10.92-12.46-29.874-13.71-42.335-2.79-12.46 10.92-13.71 29.874-2.79 42.335 10.92 12.461 29.874 13.71 42.335 2.79z"/>
  <path stroke="url(#paint2_linear)" stroke-miterlimit="10" stroke-width=".21" d="M96 136c15.464 0 28-12.536 28-28s-12.536-28-28-28-28 12.536-28 28 12.536 28 28 28z"/>
  <path fill="#FFBE1B" d="M90.466 119.904a53.397 53.397 0 01-.881-2.948l-1.225-4.157c-.409-1.36-.728-2.38-.957-3.061a31.425 31.425 0 00-.498-1.7L83 95h7.81l7.16 26h-7.16l-.344-1.096zm6.01-10.43L100.343 95H108l-3.905 13.038-1.417 4.761c-.459 1.462-.88 2.847-1.263 4.157-.255.958-.549 1.94-.881 2.948L100.19 121h-.536l-3.178-11.526z"/>
  <path fill="#2D4F4A" d="M142.247 50h-38.494C98.92 50 95 53.905 95 58.721v20.79c0 4.817 3.92 8.721 8.753 8.721h6.329V100l12.016-11.768h20.149c4.832 0 8.753-3.904 8.753-8.72v-20.79c0-4.816-3.92-8.722-8.753-8.722z"/>
  <path fill="#FCFCFC" d="M136.693 57.856a3.679 3.679 0 00-5.166.445l-11.58 13.705-4.73-4.555a3.68 3.68 0 00-5.186.086 3.64 3.64 0 00.086 5.16l7.558 7.276a3.676 3.676 0 005.355-.274l14.109-16.7a3.637 3.637 0 00-.446-5.143z"/>
  <path fill="#FFBE1B" d="M154.314 114.829a11.208 11.208 0 01-8.143-8.144l-.172-.685-.17.685a11.21 11.21 0 01-8.146 8.144L137 115l.683.171a11.21 11.21 0 018.146 8.145l.17.684.172-.684a11.208 11.208 0 018.143-8.145L155 115l-.686-.171z"/>
  <defs>
    <linearGradient id="paint0_linear" x1="15.008" x2="175" y1="95.001" y2="95.001" gradientUnits="userSpaceOnUse">
      <stop stop-color="#2D4F4A"/>
      <stop offset="1" stop-color="#2D4F4A"/>
    </linearGradient>
    <linearGradient id="paint1_linear" x1=".01" x2="190" y1="95.001" y2="95.001" gradientUnits="userSpaceOnUse">
      <stop stop-color="#2D4F4A"/>
      <stop offset="1" stop-color="#2D4F4A"/>
    </linearGradient>
    <linearGradient id="paint2_linear" x1="16652.7" x2="18758.9" y1="16575.4" y2="16569.1" gradientUnits="userSpaceOnUse">
      <stop stop-color="#FFFF47"/>
      <stop offset=".5" stop-color="#F7E444"/>
      <stop offset="1" stop-color="#F1CE42"/>
    </linearGradient>
  </defs>
</svg>
